<svg width="1665" height="475" viewBox="0 0 1665 475" fill="none" xmlns="http://www.w3.org/2000/svg">
<g opacity="0.33" clip-path="url(#clip0_375_71551)">
<g opacity="0.78">
<path d="M433.667 362.772H340.957V405.046H433.667V362.772Z" stroke="white" stroke-miterlimit="10"/>
<path d="M340.957 362.771H442.617L427.669 342.66H340.957V362.771Z" stroke="white" stroke-miterlimit="10"/>
<path d="M395.022 377.174H375.235V405.114H395.022V377.174Z" stroke="white" stroke-miterlimit="10"/>
<path d="M424.07 372.922H404.027V392.52H424.07V372.922Z" stroke="white" stroke-miterlimit="10"/>
<path d="M404.027 383.478H424.07" stroke="white" stroke-miterlimit="10"/>
<path d="M414.014 372.922V382.721" stroke="white" stroke-miterlimit="10"/>
<path d="M365.247 372.922H345.203V392.52H365.247V372.922Z" stroke="white" stroke-miterlimit="10"/>
<path d="M345.203 383.478H365.314" stroke="white" stroke-miterlimit="10"/>
<path d="M355.191 372.922V382.721" stroke="white" stroke-miterlimit="10"/>
<path d="M391.302 391.17H387.312" stroke="white" stroke-miterlimit="10"/>
<path d="M328.031 342.661L342.588 362.772" stroke="white" stroke-miterlimit="10"/>
<path d="M340.566 342.661L355.124 362.772" stroke="white" stroke-miterlimit="10"/>
<path d="M340.566 342.661L355.124 362.772" stroke="white" stroke-miterlimit="10"/>
<path d="M353.102 342.661L367.659 362.772" stroke="white" stroke-miterlimit="10"/>
<path d="M353.102 342.661L367.659 362.772" stroke="white" stroke-miterlimit="10"/>
<path d="M365.638 342.661L380.263 362.772" stroke="white" stroke-miterlimit="10"/>
<path d="M365.638 342.661L380.263 362.772" stroke="white" stroke-miterlimit="10"/>
<path d="M378.173 342.661L392.798 362.772" stroke="white" stroke-miterlimit="10"/>
<path d="M378.173 342.661L392.798 362.772" stroke="white" stroke-miterlimit="10"/>
<path d="M390.709 342.661L405.334 362.772" stroke="white" stroke-miterlimit="10"/>
<path d="M390.709 342.661L405.334 362.772" stroke="white" stroke-miterlimit="10"/>
<path d="M403.312 342.661L417.87 362.772" stroke="white" stroke-miterlimit="10"/>
<path d="M403.312 342.661L417.87 362.772" stroke="white" stroke-miterlimit="10"/>
<path d="M415.848 342.661L430.405 362.772" stroke="white" stroke-miterlimit="10"/>
<path d="M415.848 342.661L430.405 362.772" stroke="white" stroke-miterlimit="10"/>
<path d="M341.025 297.108H211.691V405.466H341.025V297.108Z" stroke="white" stroke-miterlimit="10"/>
<path d="M211.691 170.15H51.8007V405.236H211.691V170.15Z" stroke="white" stroke-miterlimit="10"/>
<path d="M211.691 160.647H51.8007V170.15H211.691V160.647Z" stroke="white" stroke-miterlimit="10"/>
<path d="M194.91 150.849H66.8843V160.702H194.91V150.849Z" stroke="white" stroke-miterlimit="10"/>
<path d="M130.87 150.849V120.52" stroke="white" stroke-miterlimit="10"/>
<path d="M574.728 241.295V213.949" stroke="white" stroke-miterlimit="10"/>
<path d="M161.346 170.15V327.139" stroke="white" stroke-miterlimit="10"/>
<path d="M104.289 170.15V327.139" stroke="white" stroke-miterlimit="10"/>
<path d="M51.8007 295.015H211.031" stroke="white" stroke-miterlimit="10"/>
<path d="M51.8008 224.153H211.031" stroke="white" stroke-miterlimit="10"/>
<path d="M51.8007 194.473H211.031" stroke="white" stroke-miterlimit="10"/>
<path d="M211.691 254.713H51.8008V264.458H211.691V254.713Z" stroke="white" stroke-miterlimit="10"/>
<path d="M211.691 325.155H51.8007V334.9H211.691V325.155Z" stroke="white" stroke-miterlimit="10"/>
<path d="M618.414 242.118H529.289V405.357H618.414V242.118Z" stroke="white" stroke-miterlimit="10"/>
<path d="M528.628 391.927H618.723" stroke="white" stroke-miterlimit="10"/>
<path d="M528.628 378.348H618.723" stroke="white" stroke-miterlimit="10"/>
<path d="M528.628 364.811H618.723" stroke="white" stroke-miterlimit="10"/>
<path d="M528.628 351.231H618.723" stroke="white" stroke-miterlimit="10"/>
<path d="M528.628 337.64H618.723" stroke="white" stroke-miterlimit="10"/>
<path d="M528.628 324.115H618.723" stroke="white" stroke-miterlimit="10"/>
<path d="M528.628 310.524H618.723" stroke="white" stroke-miterlimit="10"/>
<path d="M528.628 296.985H618.723" stroke="white" stroke-miterlimit="10"/>
<path d="M528.628 283.407H618.723" stroke="white" stroke-miterlimit="10"/>
<path d="M528.628 269.816H618.723" stroke="white" stroke-miterlimit="10"/>
<path d="M528.628 256.291H618.724" stroke="white" stroke-miterlimit="10"/>
<path d="M886.61 259.085H824.525V405.411H886.61V259.085Z" stroke="white" stroke-miterlimit="10"/>
<path d="M697.335 275.593H618.4V405.115H697.335V275.593Z" stroke="white" stroke-miterlimit="10"/>
<path d="M900.116 141.495C898.027 141.495 895.938 142.021 894.239 142.831C894.104 134.719 886.799 128.254 877.727 128.254C870.354 128.254 864.086 132.627 861.997 138.633C860.555 138.107 858.924 137.878 857.225 137.878C852.009 137.878 847.426 140.564 845.148 144.41C843.382 143.533 841.36 143.007 839.204 143.007C832.612 143.007 827.194 147.785 827.194 153.737H844.164H851.146H866.364H870.152H888.106H888.955H911.87C911.938 153.211 912.005 152.752 912.005 152.225C912.14 146.327 906.721 141.495 900.116 141.495Z" stroke="white" stroke-miterlimit="10"/>
<path d="M824.512 201.99H697.268V405.168H824.512V201.99Z" stroke="white" stroke-miterlimit="10"/>
<path d="M831.965 191.382H689.247V202.058H831.965V191.382Z" stroke="white" stroke-miterlimit="10"/>
<path d="M799.642 333.846H784.559V354.835H799.642V333.846Z" stroke="white" stroke-miterlimit="10"/>
<path d="M780.448 354.782H803.362" stroke="white" stroke-miterlimit="10"/>
<path d="M784.896 343.591H799.642" stroke="white" stroke-miterlimit="10"/>
<path d="M767.979 333.846H752.896V354.835H767.979V333.846Z" stroke="white" stroke-miterlimit="10"/>
<path d="M748.718 354.782H771.632" stroke="white" stroke-miterlimit="10"/>
<path d="M753.219 343.591H767.979" stroke="white" stroke-miterlimit="10"/>
<path d="M736.317 333.846H721.233V354.835H736.317V333.846Z" stroke="white" stroke-miterlimit="10"/>
<path d="M717.055 354.782H739.969" stroke="white" stroke-miterlimit="10"/>
<path d="M721.557 343.591H736.249" stroke="white" stroke-miterlimit="10"/>
<path d="M799.642 297.283H784.559V318.272H799.642V297.283Z" stroke="white" stroke-miterlimit="10"/>
<path d="M780.448 318.218H803.363" stroke="white" stroke-miterlimit="10"/>
<path d="M784.896 307.029H799.642" stroke="white" stroke-miterlimit="10"/>
<path d="M767.979 297.283H752.896V318.272H767.979V297.283Z" stroke="white" stroke-miterlimit="10"/>
<path d="M748.717 318.218H771.632" stroke="white" stroke-miterlimit="10"/>
<path d="M753.22 307.029H767.979" stroke="white" stroke-miterlimit="10"/>
<path d="M736.317 297.283H721.234V318.272H736.317V297.283Z" stroke="white" stroke-miterlimit="10"/>
<path d="M717.055 318.218H739.97" stroke="white" stroke-miterlimit="10"/>
<path d="M721.557 307.029H736.25" stroke="white" stroke-miterlimit="10"/>
<path d="M799.642 260.72H784.559V281.708H799.642V260.72Z" stroke="white" stroke-miterlimit="10"/>
<path d="M780.448 281.655H803.362" stroke="white" stroke-miterlimit="10"/>
<path d="M784.896 270.465H799.642" stroke="white" stroke-miterlimit="10"/>
<path d="M767.979 260.72H752.896V281.708H767.979V260.72Z" stroke="white" stroke-miterlimit="10"/>
<path d="M748.717 281.655H771.632" stroke="white" stroke-miterlimit="10"/>
<path d="M753.219 270.465H767.979" stroke="white" stroke-miterlimit="10"/>
<path d="M736.317 260.72H721.233V281.708H736.317V260.72Z" stroke="white" stroke-miterlimit="10"/>
<path d="M717.055 281.655H739.969" stroke="white" stroke-miterlimit="10"/>
<path d="M721.557 270.465H736.249" stroke="white" stroke-miterlimit="10"/>
<path d="M799.642 224.151H784.559V245.14H799.642V224.151Z" stroke="white" stroke-miterlimit="10"/>
<path d="M780.448 245.087H803.362" stroke="white" stroke-miterlimit="10"/>
<path d="M784.896 233.883H799.642" stroke="white" stroke-miterlimit="10"/>
<path d="M767.979 224.151H752.896V245.14H767.979V224.151Z" stroke="white" stroke-miterlimit="10"/>
<path d="M748.717 245.087H771.632" stroke="white" stroke-miterlimit="10"/>
<path d="M753.219 233.883H767.979" stroke="white" stroke-miterlimit="10"/>
<path d="M736.317 224.151H721.234V245.14H736.317V224.151Z" stroke="white" stroke-miterlimit="10"/>
<path d="M717.055 245.087H739.97" stroke="white" stroke-miterlimit="10"/>
<path d="M721.557 233.883H736.249" stroke="white" stroke-miterlimit="10"/>
<path d="M707.848 218.147V234.128" stroke="white" stroke-miterlimit="10"/>
<path d="M478.324 417.182H468.862" stroke="white" stroke-miterlimit="10"/>
<path d="M621.582 452.287H612.106" stroke="white" stroke-miterlimit="10"/>
<path d="M362.308 431.447H352.778" stroke="white" stroke-miterlimit="10"/>
<path d="M448.562 445.646H446.203" stroke="white" stroke-miterlimit="10"/>
<path d="M528.79 445.646H513.262" stroke="white" stroke-miterlimit="10"/>
<path d="M556.166 434.74H553.754" stroke="white" stroke-miterlimit="10"/>
<path d="M39.2647 381.251C52.4635 381.251 63.1633 371.697 63.1633 359.912C63.1633 348.126 52.4635 338.572 39.2647 338.572C26.0658 338.572 15.366 348.126 15.366 359.912C15.366 371.697 26.0658 381.251 39.2647 381.251Z" stroke="white" stroke-miterlimit="10"/>
<path d="M39.2646 356.536V406.045" stroke="white" stroke-miterlimit="10"/>
<path d="M39.2646 370.883L51.8677 364.283" stroke="white" stroke-miterlimit="10"/>
<path d="M39.265 361.261L26.6619 354.675" stroke="white" stroke-miterlimit="10"/>
<path d="M697.268 191.206V184.093H824.525V191.206" stroke="white" stroke-miterlimit="10"/>
<path d="M678.275 370.994H669.918V383.533H678.275V370.994Z" stroke="white" stroke-miterlimit="10"/>
<path d="M661.102 370.994H652.745V383.533H661.102V370.994Z" stroke="white" stroke-miterlimit="10"/>
<path d="M643.93 370.994H635.573V383.533H643.93V370.994Z" stroke="white" stroke-miterlimit="10"/>
<path d="M678.275 351.516H669.918V364.055H678.275V351.516Z" stroke="white" stroke-miterlimit="10"/>
<path d="M661.102 351.516H652.745V364.055H661.102V351.516Z" stroke="white" stroke-miterlimit="10"/>
<path d="M643.93 351.516H635.573V364.055H643.93V351.516Z" stroke="white" stroke-miterlimit="10"/>
<path d="M678.275 332.039H669.918V344.578H678.275V332.039Z" stroke="white" stroke-miterlimit="10"/>
<path d="M661.102 332.039H652.745V344.578H661.102V332.039Z" stroke="white" stroke-miterlimit="10"/>
<path d="M643.93 332.039H635.573V344.578H643.93V332.039Z" stroke="white" stroke-miterlimit="10"/>
<path d="M678.275 312.616H669.918V325.155H678.275V312.616Z" stroke="white" stroke-miterlimit="10"/>
<path d="M661.102 312.616H652.745V325.155H661.102V312.616Z" stroke="white" stroke-miterlimit="10"/>
<path d="M643.93 312.616H635.573V325.155H643.93V312.616Z" stroke="white" stroke-miterlimit="10"/>
<path d="M678.275 293.14H669.918V305.679H678.275V293.14Z" stroke="white" stroke-miterlimit="10"/>
<path d="M661.102 293.14H652.745V305.679H661.102V293.14Z" stroke="white" stroke-miterlimit="10"/>
<path d="M643.93 293.14H635.573V305.679H643.93V293.14Z" stroke="white" stroke-miterlimit="10"/>
<path d="M875.503 397.649C874.128 393.681 869.95 390.819 865.057 390.819C860.029 390.819 855.85 393.856 854.543 397.878C853.95 397.757 853.303 397.649 852.656 397.649C848.275 397.649 844.824 400.794 844.824 404.641C844.824 404.87 844.824 405.113 844.892 405.343H855.594H860.487H867.604H874.654H883.146C883.146 405.113 883.213 404.87 883.213 404.641C883.146 400.794 879.749 397.771 875.503 397.649Z" stroke="white" stroke-miterlimit="10"/>
<path d="M321.695 341.029H302.177V358.467H321.695V341.029Z" stroke="white" stroke-miterlimit="10"/>
<path d="M321.695 341.029H302.177V358.467H321.695V341.029Z" stroke="white" stroke-miterlimit="10"/>
<path d="M282.78 341.029H263.262V358.467H282.78V341.029Z" stroke="white" stroke-miterlimit="10"/>
<path d="M282.78 341.029H263.262V358.467H282.78V341.029Z" stroke="white" stroke-miterlimit="10"/>
<path d="M243.812 341.029H224.294V358.467H243.812V341.029Z" stroke="white" stroke-miterlimit="10"/>
<path d="M243.812 341.029H224.294V358.467H243.812V341.029Z" stroke="white" stroke-miterlimit="10"/>
<path d="M321.696 367.617H302.178V385.056H321.696V367.617Z" stroke="white" stroke-miterlimit="10"/>
<path d="M321.696 367.617H302.178V385.056H321.696V367.617Z" stroke="white" stroke-miterlimit="10"/>
<path d="M282.781 367.617H263.263V385.056H282.781V367.617Z" stroke="white" stroke-miterlimit="10"/>
<path d="M282.781 367.617H263.263V385.056H282.781V367.617Z" stroke="white" stroke-miterlimit="10"/>
<path d="M243.813 367.617H224.295V385.056H243.813V367.617Z" stroke="white" stroke-miterlimit="10"/>
<path d="M243.813 367.617H224.295V385.056H243.813V367.617Z" stroke="white" stroke-miterlimit="10"/>
<path d="M348.479 285.797H211.759V297.054H348.479V285.797Z" stroke="white" stroke-miterlimit="10"/>
<path d="M224.295 352.92H243.813" stroke="white" stroke-miterlimit="10"/>
<path d="M263.465 353.5H283.05" stroke="white" stroke-miterlimit="10"/>
<path d="M302.838 353.5H322.423" stroke="white" stroke-miterlimit="10"/>
<path d="M321.695 312.738H302.177V330.177H321.695V312.738Z" stroke="white" stroke-miterlimit="10"/>
<path d="M321.695 312.738H302.177V330.177H321.695V312.738Z" stroke="white" stroke-miterlimit="10"/>
<path d="M282.78 312.738H263.262V330.177H282.78V312.738Z" stroke="white" stroke-miterlimit="10"/>
<path d="M282.78 312.738H263.262V330.177H282.78V312.738Z" stroke="white" stroke-miterlimit="10"/>
<path d="M243.812 312.738H224.294V330.177H243.812V312.738Z" stroke="white" stroke-miterlimit="10"/>
<path d="M243.812 312.738H224.294V330.177H243.812V312.738Z" stroke="white" stroke-miterlimit="10"/>
<path d="M224.295 324.628H243.813" stroke="white" stroke-miterlimit="10"/>
<path d="M263.465 325.222H283.05" stroke="white" stroke-miterlimit="10"/>
<path d="M302.838 325.222H322.423" stroke="white" stroke-miterlimit="10"/>
<path d="M224.295 379.159H243.813" stroke="white" stroke-miterlimit="10"/>
<path d="M263.465 379.739H283.05" stroke="white" stroke-miterlimit="10"/>
<path d="M302.838 379.739H322.423" stroke="white" stroke-miterlimit="10"/>
<path d="M834.701 380.738C847.751 380.738 858.33 371.286 858.33 359.628C858.33 347.969 847.751 338.518 834.701 338.518C821.651 338.518 811.072 347.969 811.072 359.628C811.072 371.286 821.651 380.738 834.701 380.738Z" stroke="white" stroke-miterlimit="10"/>
<path d="M847.237 360.91C847.237 350.355 838.098 341.717 826.547 340.961C818.19 343.876 812.178 351.111 812.178 359.682C812.178 370.237 821.317 378.875 832.869 379.631C841.293 376.648 847.237 369.36 847.237 360.91Z" stroke="white" stroke-miterlimit="10"/>
<path d="M834.702 356.307V405.343" stroke="white" stroke-miterlimit="10"/>
<path d="M834.702 370.534L847.237 364.001" stroke="white" stroke-miterlimit="10"/>
<path d="M834.702 360.964L822.233 354.499" stroke="white" stroke-miterlimit="10"/>
<path d="M495.173 382.37L503.463 378.051" stroke="white" stroke-miterlimit="10"/>
<path d="M495.173 376.067L486.951 371.761" stroke="white" stroke-miterlimit="10"/>
<path d="M505.687 364.932C507.062 363.298 507.911 361.314 507.911 359.222C507.911 353.688 502.169 349.14 495.119 349.14C488.07 349.14 482.327 353.634 482.327 359.222C482.327 361.328 483.177 363.298 484.551 364.932C481.424 367.442 479.456 371.113 479.456 375.19C479.456 382.829 486.439 389.133 495.065 389.133C503.678 389.133 510.674 382.897 510.674 375.19C510.782 371.113 508.814 367.442 505.687 364.932Z" stroke="white" stroke-miterlimit="10"/>
<path d="M495.173 372.977V405.343" stroke="white" stroke-miterlimit="10"/>
<path d="M340.957 276.698H211.691V285.85H340.957V276.698Z" stroke="white" stroke-miterlimit="10"/>
<path d="M927.088 405.235H0" stroke="white" stroke-miterlimit="10"/>
<path d="M755.052 184.094V151.309" stroke="white" stroke-miterlimit="10"/>
<path d="M763.41 184.094V151.309" stroke="white" stroke-miterlimit="10"/>
<path d="M742.975 159.365L777.967 154.925" stroke="white" stroke-miterlimit="10"/>
<path d="M742.975 165.655L777.967 161.35" stroke="white" stroke-miterlimit="10"/>
<path d="M659.728 153.008C659.728 153.008 661.615 166.127 650.845 169.798C650.845 169.798 632.365 175.17 629.238 156.557C629.238 156.557 630.478 160.053 636.22 158.191C636.22 158.191 638.565 157.543 639.684 158.137C640.668 158.663 639.091 156.328 639.428 155.801C639.428 155.801 639.428 155.747 639.36 155.747C638.767 155.869 636.233 156.098 635.182 154.29C635.182 154.29 637.339 154.762 638.646 153.129C638.646 153.129 638.646 153.075 638.579 153.075C638.053 153.129 635.047 153.547 634.144 152.09L636.489 150.807C636.557 150.807 636.489 150.753 636.489 150.753C635.573 150.983 632.243 151.455 631.327 147.608C631.327 147.608 633.281 148.418 635.505 147.959C635.182 147.905 631.259 147.204 631.785 143.762C631.785 143.762 643.148 144.869 646.275 155.302C646.275 155.302 647.515 162.294 652.341 162.591C652.341 162.591 655.347 163.347 656.91 153.264C656.91 153.264 656.52 149.242 660.24 149.363C660.24 149.363 661.803 149.309 662.127 150.524C662.262 151.05 662.127 151.631 661.803 152.103C661.561 152.711 660.9 153.183 659.728 153.008Z" stroke="white" stroke-miterlimit="10"/>
<path d="M661.628 152.483L677.103 153.995L662.208 150.553" stroke="white" stroke-miterlimit="10"/>
<path d="M640.601 170.028C640.601 170.028 634.791 176.264 625.059 175.805" stroke="white" stroke-miterlimit="10"/>
<path d="M636.678 168.571C636.678 168.571 631.785 173.822 622.97 173.417" stroke="white" stroke-miterlimit="10"/>
<path d="M681.672 170.271L671.549 152.832L666.912 171.499C666.521 172.376 666.386 173.362 666.589 174.414C667.182 177.91 671.226 180.299 675.593 179.719C679.96 179.139 683.033 175.818 682.454 172.376C682.252 171.553 681.995 170.851 681.672 170.271Z" stroke="white" stroke-miterlimit="10"/>
<path d="M671.751 152.833C671.751 152.833 670.443 149.391 674.299 149.216C674.285 149.216 675.269 151.429 671.751 152.833Z" stroke="white" stroke-miterlimit="10"/>
<path d="M671.347 152.832C671.347 152.832 672.331 149.336 668.475 149.444C668.408 149.444 667.694 151.658 671.347 152.832Z" stroke="white" stroke-miterlimit="10"/>
<path d="M280.018 209.386C280.018 209.386 281.905 222.506 271.135 226.177C271.135 226.177 252.655 231.549 249.528 212.936C249.528 212.936 250.768 216.432 256.51 214.569C256.51 214.569 258.855 213.922 259.974 214.515C260.958 215.042 259.381 212.707 259.718 212.18C259.718 212.18 259.718 212.126 259.65 212.126C259.057 212.248 256.523 212.477 255.472 210.669C255.472 210.669 257.629 211.141 258.936 209.508C258.936 209.508 258.936 209.454 258.869 209.454C258.343 209.508 255.337 209.926 254.434 208.469L256.779 207.186C256.847 207.186 256.779 207.132 256.779 207.132C255.863 207.362 252.533 207.834 251.617 203.987C251.617 203.987 253.571 204.797 255.795 204.338C255.472 204.284 251.549 203.582 252.075 200.141C252.075 200.141 263.438 201.247 266.565 211.681C266.565 211.681 267.805 218.673 272.631 218.97C272.631 218.97 275.637 219.725 277.2 209.643C277.2 209.643 276.81 205.621 280.53 205.742C280.53 205.742 282.093 205.688 282.417 206.903C282.552 207.429 282.417 208.01 282.093 208.482C281.837 209.089 281.19 209.562 280.018 209.386Z" stroke="white" stroke-miterlimit="10"/>
<path d="M281.905 208.861L297.379 210.373L282.498 206.931" stroke="white" stroke-miterlimit="10"/>
<path d="M260.877 226.408C260.877 226.408 255.068 232.644 245.336 232.185" stroke="white" stroke-miterlimit="10"/>
<path d="M256.969 224.95C256.969 224.95 252.076 230.201 243.26 229.796" stroke="white" stroke-miterlimit="10"/>
<path d="M301.948 226.651L291.826 209.212L287.189 227.879C286.798 228.756 286.663 229.742 286.865 230.794C287.458 234.29 291.502 236.679 295.869 236.099C300.237 235.518 303.31 232.198 302.73 228.756C302.541 227.933 302.272 227.231 301.948 226.651Z" stroke="white" stroke-miterlimit="10"/>
<path d="M292.028 209.212C292.028 209.212 290.72 205.77 294.575 205.595C294.575 205.595 295.546 207.808 292.028 209.212Z" stroke="white" stroke-miterlimit="10"/>
<path d="M291.637 209.212C291.637 209.212 292.621 205.717 288.766 205.824C288.698 205.824 287.97 208.038 291.637 209.212Z" stroke="white" stroke-miterlimit="10"/>
</g>
<g opacity="0.78">
<path d="M969.494 241.472V214.112" stroke="white" stroke-miterlimit="10"/>
<path d="M1013.18 242.281H924.055V405.52H1013.18V242.281Z" stroke="white" stroke-miterlimit="10"/>
<path d="M923.395 392.103H1013.49" stroke="white" stroke-miterlimit="10"/>
<path d="M923.395 378.512H1013.49" stroke="white" stroke-miterlimit="10"/>
<path d="M923.395 364.987H1013.49" stroke="white" stroke-miterlimit="10"/>
<path d="M923.395 351.396H1013.49" stroke="white" stroke-miterlimit="10"/>
<path d="M923.395 337.816H1013.49" stroke="white" stroke-miterlimit="10"/>
<path d="M923.395 324.28H1013.49" stroke="white" stroke-miterlimit="10"/>
<path d="M923.395 310.687H1013.49" stroke="white" stroke-miterlimit="10"/>
<path d="M923.395 297.163H1013.49" stroke="white" stroke-miterlimit="10"/>
<path d="M923.395 283.57H1013.49" stroke="white" stroke-miterlimit="10"/>
<path d="M923.395 269.993H1013.49" stroke="white" stroke-miterlimit="10"/>
<path d="M923.395 256.454H1013.49" stroke="white" stroke-miterlimit="10"/>
<path d="M1281.38 259.261H1219.29V405.587H1281.38V259.261Z" stroke="white" stroke-miterlimit="10"/>
<path d="M1092.1 275.755H1013.17V405.277H1092.1V275.755Z" stroke="white" stroke-miterlimit="10"/>
<path d="M1294.88 141.657C1292.79 141.657 1290.7 142.184 1289.01 142.994C1288.87 134.882 1281.57 128.416 1272.49 128.416C1265.12 128.416 1258.85 132.789 1256.76 138.796C1255.32 138.269 1253.69 138.04 1251.99 138.04C1246.78 138.04 1242.19 140.726 1239.91 144.573C1238.15 143.695 1236.13 143.169 1233.97 143.169C1227.38 143.169 1221.96 147.947 1221.96 153.899H1238.93H1245.91H1261.13H1264.92H1282.87H1283.72H1306.64C1306.7 153.373 1306.77 152.914 1306.77 152.388C1306.91 146.503 1301.49 141.657 1294.88 141.657Z" stroke="white" stroke-miterlimit="10"/>
<path d="M1219.28 202.166H1092.03V405.343H1219.28V202.166Z" stroke="white" stroke-miterlimit="10"/>
<path d="M1226.73 191.544H1084.01V202.22H1226.73V191.544Z" stroke="white" stroke-miterlimit="10"/>
<path d="M1194.41 334.026H1179.33V355.015H1194.41V334.026Z" stroke="white" stroke-miterlimit="10"/>
<path d="M1175.21 354.962H1198.13" stroke="white" stroke-miterlimit="10"/>
<path d="M1179.66 343.758H1194.41" stroke="white" stroke-miterlimit="10"/>
<path d="M1162.75 334.026H1147.66V355.015H1162.75V334.026Z" stroke="white" stroke-miterlimit="10"/>
<path d="M1143.48 354.962H1166.4" stroke="white" stroke-miterlimit="10"/>
<path d="M1147.99 343.758H1162.75" stroke="white" stroke-miterlimit="10"/>
<path d="M1131.08 334.026H1116V355.015H1131.08V334.026Z" stroke="white" stroke-miterlimit="10"/>
<path d="M1111.82 354.962H1134.74" stroke="white" stroke-miterlimit="10"/>
<path d="M1116.32 343.758H1131.02" stroke="white" stroke-miterlimit="10"/>
<path d="M1194.41 297.458H1179.33V318.446H1194.41V297.458Z" stroke="white" stroke-miterlimit="10"/>
<path d="M1175.21 318.393H1198.13" stroke="white" stroke-miterlimit="10"/>
<path d="M1179.66 307.188H1194.41" stroke="white" stroke-miterlimit="10"/>
<path d="M1162.75 297.458H1147.66V318.446H1162.75V297.458Z" stroke="white" stroke-miterlimit="10"/>
<path d="M1143.48 318.393H1166.4" stroke="white" stroke-miterlimit="10"/>
<path d="M1147.99 307.188H1162.75" stroke="white" stroke-miterlimit="10"/>
<path d="M1131.08 297.458H1116V318.447H1131.08V297.458Z" stroke="white" stroke-miterlimit="10"/>
<path d="M1111.82 318.393H1134.74" stroke="white" stroke-miterlimit="10"/>
<path d="M1116.32 307.189H1131.02" stroke="white" stroke-miterlimit="10"/>
<path d="M1194.41 260.895H1179.33V281.884H1194.41V260.895Z" stroke="white" stroke-miterlimit="10"/>
<path d="M1175.21 281.83H1198.13" stroke="white" stroke-miterlimit="10"/>
<path d="M1179.66 270.626H1194.41" stroke="white" stroke-miterlimit="10"/>
<path d="M1162.75 260.895H1147.66V281.884H1162.75V260.895Z" stroke="white" stroke-miterlimit="10"/>
<path d="M1143.48 281.83H1166.4" stroke="white" stroke-miterlimit="10"/>
<path d="M1147.99 270.626H1162.75" stroke="white" stroke-miterlimit="10"/>
<path d="M1131.08 260.895H1116V281.883H1131.08V260.895Z" stroke="white" stroke-miterlimit="10"/>
<path d="M1111.82 281.83H1134.74" stroke="white" stroke-miterlimit="10"/>
<path d="M1116.32 270.626H1131.02" stroke="white" stroke-miterlimit="10"/>
<path d="M1194.41 224.316H1179.33V245.305H1194.41V224.316Z" stroke="white" stroke-miterlimit="10"/>
<path d="M1175.21 245.265H1198.13" stroke="white" stroke-miterlimit="10"/>
<path d="M1179.66 234.062H1194.41" stroke="white" stroke-miterlimit="10"/>
<path d="M1162.75 224.316H1147.66V245.305H1162.75V224.316Z" stroke="white" stroke-miterlimit="10"/>
<path d="M1143.48 245.265H1166.4" stroke="white" stroke-miterlimit="10"/>
<path d="M1147.99 234.062H1162.75" stroke="white" stroke-miterlimit="10"/>
<path d="M1131.08 224.316H1116V245.305H1131.08V224.316Z" stroke="white" stroke-miterlimit="10"/>
<path d="M1111.82 245.265H1134.74" stroke="white" stroke-miterlimit="10"/>
<path d="M1116.32 234.062H1131.02" stroke="white" stroke-miterlimit="10"/>
<path d="M1102.61 218.309V234.29" stroke="white" stroke-miterlimit="10"/>
<path d="M873.091 417.356H863.628" stroke="white" stroke-miterlimit="10"/>
<path d="M1016.35 452.464H1006.87" stroke="white" stroke-miterlimit="10"/>
<path d="M843.329 445.81H840.97" stroke="white" stroke-miterlimit="10"/>
<path d="M923.557 445.81H908.029" stroke="white" stroke-miterlimit="10"/>
<path d="M950.933 434.903H948.521" stroke="white" stroke-miterlimit="10"/>
<path d="M1092.03 191.368V184.255H1219.29V191.368" stroke="white" stroke-miterlimit="10"/>
<path d="M1073.04 371.167H1064.68V383.706H1073.04V371.167Z" stroke="white" stroke-miterlimit="10"/>
<path d="M1055.87 371.167H1047.51V383.706H1055.87V371.167Z" stroke="white" stroke-miterlimit="10"/>
<path d="M1038.7 371.166H1030.34V383.705H1038.7V371.166Z" stroke="white" stroke-miterlimit="10"/>
<path d="M1073.04 351.689H1064.68V364.228H1073.04V351.689Z" stroke="white" stroke-miterlimit="10"/>
<path d="M1055.87 351.689H1047.51V364.228H1055.87V351.689Z" stroke="white" stroke-miterlimit="10"/>
<path d="M1038.7 351.689H1030.34V364.229H1038.7V351.689Z" stroke="white" stroke-miterlimit="10"/>
<path d="M1073.04 332.212H1064.68V344.751H1073.04V332.212Z" stroke="white" stroke-miterlimit="10"/>
<path d="M1055.87 332.212H1047.51V344.751H1055.87V332.212Z" stroke="white" stroke-miterlimit="10"/>
<path d="M1038.7 332.212H1030.34V344.751H1038.7V332.212Z" stroke="white" stroke-miterlimit="10"/>
<path d="M1073.04 312.79H1064.68V325.329H1073.04V312.79Z" stroke="white" stroke-miterlimit="10"/>
<path d="M1055.87 312.79H1047.51V325.329H1055.87V312.79Z" stroke="white" stroke-miterlimit="10"/>
<path d="M1038.7 312.79H1030.34V325.329H1038.7V312.79Z" stroke="white" stroke-miterlimit="10"/>
<path d="M1073.04 293.313H1064.68V305.852H1073.04V293.313Z" stroke="white" stroke-miterlimit="10"/>
<path d="M1055.87 293.313H1047.51V305.852H1055.87V293.313Z" stroke="white" stroke-miterlimit="10"/>
<path d="M1038.7 293.313H1030.34V305.852H1038.7V293.313Z" stroke="white" stroke-miterlimit="10"/>
<path d="M1270.27 397.826C1268.89 393.858 1264.72 390.996 1259.82 390.996C1254.8 390.996 1250.62 394.033 1249.31 398.055C1248.72 397.934 1248.07 397.826 1247.42 397.826C1243.04 397.826 1239.59 400.971 1239.59 404.817C1239.59 405.047 1239.59 405.29 1239.66 405.519H1250.36H1255.25H1262.37H1269.42H1277.91C1277.91 405.29 1277.98 405.047 1277.98 404.817C1277.91 400.971 1274.52 397.934 1270.27 397.826Z" stroke="white" stroke-miterlimit="10"/>
<path d="M1229.47 380.9C1242.52 380.9 1253.1 371.449 1253.1 359.79C1253.1 348.131 1242.52 338.68 1229.47 338.68C1216.42 338.68 1205.84 348.131 1205.84 359.79C1205.84 371.449 1216.42 380.9 1229.47 380.9Z" stroke="white" stroke-miterlimit="10"/>
<path d="M1242 361.072C1242 350.517 1232.86 341.879 1221.31 341.123C1212.96 344.038 1206.94 351.273 1206.94 359.844C1206.94 370.399 1216.08 379.037 1227.63 379.793C1236.06 376.824 1242 369.535 1242 361.072Z" stroke="white" stroke-miterlimit="10"/>
<path d="M1229.47 356.47V405.52" stroke="white" stroke-miterlimit="10"/>
<path d="M1229.47 370.696L1242 364.163" stroke="white" stroke-miterlimit="10"/>
<path d="M1229.47 361.14L1217 354.661" stroke="white" stroke-miterlimit="10"/>
<path d="M889.94 382.533L898.229 378.228" stroke="white" stroke-miterlimit="10"/>
<path d="M889.939 376.243L881.717 371.924" stroke="white" stroke-miterlimit="10"/>
<path d="M900.453 365.107C901.828 363.474 902.678 361.49 902.678 359.398C902.678 353.864 896.935 349.315 889.886 349.315C882.836 349.315 877.094 353.81 877.094 359.398C877.094 361.504 877.943 363.474 879.318 365.107C876.191 367.618 874.223 371.289 874.223 375.365C874.223 383.005 881.205 389.308 889.832 389.308C898.445 389.308 905.441 383.073 905.441 375.365C905.549 371.289 903.581 367.604 900.453 365.107Z" stroke="white" stroke-miterlimit="10"/>
<path d="M889.94 373.152V405.519" stroke="white" stroke-miterlimit="10"/>
<path d="M1149.82 184.254V151.482" stroke="white" stroke-miterlimit="10"/>
<path d="M1158.18 184.254V151.482" stroke="white" stroke-miterlimit="10"/>
<path d="M1137.74 159.528L1172.73 155.101" stroke="white" stroke-miterlimit="10"/>
<path d="M1137.74 165.831L1172.73 161.512" stroke="white" stroke-miterlimit="10"/>
<path d="M1054.49 153.172C1054.49 153.172 1056.38 166.291 1045.61 169.962C1045.61 169.962 1027.13 175.334 1024 156.721C1024 156.721 1025.24 160.217 1030.99 158.355C1030.99 158.355 1033.33 157.707 1034.45 158.301C1035.43 158.827 1033.86 156.492 1034.19 155.966C1034.19 155.966 1034.19 155.912 1034.13 155.912C1033.53 156.033 1031 156.262 1029.95 154.454C1029.95 154.454 1032.11 154.926 1033.41 153.293C1033.41 153.293 1033.41 153.239 1033.35 153.239C1032.82 153.293 1029.81 153.711 1028.91 152.254L1031.26 150.971C1031.32 150.971 1031.26 150.917 1031.26 150.917C1030.34 151.147 1027.01 151.619 1026.09 147.773C1026.09 147.773 1028.05 148.582 1030.27 148.123C1029.95 148.069 1026.03 147.368 1026.55 143.926C1026.55 143.926 1037.91 145.033 1041.04 155.466C1041.04 155.466 1042.28 162.458 1047.11 162.755C1047.11 162.755 1050.11 163.511 1051.68 153.428C1051.68 153.428 1051.29 149.406 1055.01 149.527C1055.01 149.527 1056.57 149.473 1056.89 150.688C1057.03 151.214 1056.89 151.795 1056.57 152.267C1056.33 152.888 1055.67 153.347 1054.49 153.172Z" stroke="white" stroke-miterlimit="10"/>
<path d="M1056.39 152.643L1071.87 154.168L1056.97 150.726" stroke="white" stroke-miterlimit="10"/>
<path d="M1035.37 170.205C1035.37 170.205 1029.56 176.441 1019.83 175.982" stroke="white" stroke-miterlimit="10"/>
<path d="M1031.44 168.747C1031.44 168.747 1026.55 173.997 1017.74 173.592" stroke="white" stroke-miterlimit="10"/>
<path d="M1076.44 170.434L1066.32 152.995L1061.68 171.662C1061.29 172.539 1061.15 173.525 1061.36 174.578C1061.95 178.073 1065.99 180.462 1070.36 179.882C1074.74 179.302 1077.8 175.981 1077.22 172.539C1077.02 171.716 1076.76 171.014 1076.44 170.434Z" stroke="white" stroke-miterlimit="10"/>
<path d="M1066.5 152.995C1066.5 152.995 1065.2 149.553 1069.05 149.378C1069.05 149.378 1070.04 151.605 1066.5 152.995Z" stroke="white" stroke-miterlimit="10"/>
<path d="M1066.11 152.995C1066.11 152.995 1067.1 149.499 1063.24 149.607C1063.17 149.62 1062.46 151.834 1066.11 152.995Z" stroke="white" stroke-miterlimit="10"/>
</g>
<g opacity="0.78">
<path d="M1326.72 241.416V214.057" stroke="white" stroke-miterlimit="10"/>
<path d="M1370.39 242.227H1281.27V405.465H1370.39V242.227Z" stroke="white" stroke-miterlimit="10"/>
<path d="M1280.62 392.047H1370.72" stroke="white" stroke-miterlimit="10"/>
<path d="M1280.62 378.457H1370.72" stroke="white" stroke-miterlimit="10"/>
<path d="M1280.62 364.931H1370.72" stroke="white" stroke-miterlimit="10"/>
<path d="M1280.62 351.34H1370.72" stroke="white" stroke-miterlimit="10"/>
<path d="M1280.62 337.761H1370.72" stroke="white" stroke-miterlimit="10"/>
<path d="M1280.62 324.223H1370.72" stroke="white" stroke-miterlimit="10"/>
<path d="M1280.62 310.632H1370.72" stroke="white" stroke-miterlimit="10"/>
<path d="M1280.62 297.106H1370.72" stroke="white" stroke-miterlimit="10"/>
<path d="M1280.62 283.516H1370.72" stroke="white" stroke-miterlimit="10"/>
<path d="M1280.62 269.938H1370.72" stroke="white" stroke-miterlimit="10"/>
<path d="M1280.62 256.398H1370.72" stroke="white" stroke-miterlimit="10"/>
<path d="M1638.59 259.206H1576.5V405.532H1638.59V259.206Z" stroke="white" stroke-miterlimit="10"/>
<path d="M1449.33 275.7H1370.39V405.222H1449.33V275.7Z" stroke="white" stroke-miterlimit="10"/>
<path d="M1652.11 141.602C1650.02 141.602 1647.93 142.129 1646.23 142.939C1646.1 134.827 1638.79 128.361 1629.72 128.361C1622.35 128.361 1616.08 132.735 1613.99 138.741C1612.55 138.214 1610.92 137.985 1609.22 137.985C1604 137.985 1599.42 140.671 1597.14 144.518C1595.38 143.64 1593.35 143.114 1591.2 143.114C1584.61 143.114 1579.19 147.892 1579.19 153.845H1596.16H1603.14H1618.36H1622.15H1640.1H1640.95H1663.86C1663.93 153.318 1664 152.859 1664 152.333C1664.12 146.448 1658.7 141.602 1652.11 141.602Z" stroke="white" stroke-miterlimit="10"/>
<path d="M1576.5 202.111H1449.26V405.289H1576.5V202.111Z" stroke="white" stroke-miterlimit="10"/>
<path d="M1583.94 191.488H1441.23V202.165H1583.94V191.488Z" stroke="white" stroke-miterlimit="10"/>
<path d="M1551.64 333.97H1536.55V354.959H1551.64V333.97Z" stroke="white" stroke-miterlimit="10"/>
<path d="M1532.44 354.905H1555.36" stroke="white" stroke-miterlimit="10"/>
<path d="M1536.88 343.701H1551.64" stroke="white" stroke-miterlimit="10"/>
<path d="M1519.97 333.97H1504.89V354.959H1519.97V333.97Z" stroke="white" stroke-miterlimit="10"/>
<path d="M1500.71 354.905H1523.63" stroke="white" stroke-miterlimit="10"/>
<path d="M1505.21 343.701H1519.97" stroke="white" stroke-miterlimit="10"/>
<path d="M1488.31 333.97H1473.23V354.959H1488.31V333.97Z" stroke="white" stroke-miterlimit="10"/>
<path d="M1469.05 354.905H1491.96" stroke="white" stroke-miterlimit="10"/>
<path d="M1473.55 343.701H1488.24" stroke="white" stroke-miterlimit="10"/>
<path d="M1551.64 297.404H1536.55V318.392H1551.64V297.404Z" stroke="white" stroke-miterlimit="10"/>
<path d="M1532.44 318.339H1555.36" stroke="white" stroke-miterlimit="10"/>
<path d="M1536.88 307.135H1551.64" stroke="white" stroke-miterlimit="10"/>
<path d="M1519.97 297.404H1504.89V318.392H1519.97V297.404Z" stroke="white" stroke-miterlimit="10"/>
<path d="M1500.71 318.339H1523.63" stroke="white" stroke-miterlimit="10"/>
<path d="M1505.21 307.135H1519.97" stroke="white" stroke-miterlimit="10"/>
<path d="M1488.31 297.404H1473.23V318.392H1488.31V297.404Z" stroke="white" stroke-miterlimit="10"/>
<path d="M1469.05 318.339H1491.96" stroke="white" stroke-miterlimit="10"/>
<path d="M1473.55 307.135H1488.24" stroke="white" stroke-miterlimit="10"/>
<path d="M1551.64 260.838H1536.55V281.826H1551.64V260.838Z" stroke="white" stroke-miterlimit="10"/>
<path d="M1532.44 281.773H1555.36" stroke="white" stroke-miterlimit="10"/>
<path d="M1536.88 270.569H1551.64" stroke="white" stroke-miterlimit="10"/>
<path d="M1519.97 260.838H1504.89V281.826H1519.97V260.838Z" stroke="white" stroke-miterlimit="10"/>
<path d="M1500.71 281.773H1523.63" stroke="white" stroke-miterlimit="10"/>
<path d="M1505.21 270.569H1519.97" stroke="white" stroke-miterlimit="10"/>
<path d="M1488.31 260.838H1473.23V281.826H1488.31V260.838Z" stroke="white" stroke-miterlimit="10"/>
<path d="M1469.05 281.773H1491.96" stroke="white" stroke-miterlimit="10"/>
<path d="M1473.55 270.569H1488.24" stroke="white" stroke-miterlimit="10"/>
<path d="M1551.64 224.275H1536.55V245.264H1551.64V224.275Z" stroke="white" stroke-miterlimit="10"/>
<path d="M1532.44 245.209H1555.36" stroke="white" stroke-miterlimit="10"/>
<path d="M1536.88 234.007H1551.64" stroke="white" stroke-miterlimit="10"/>
<path d="M1519.97 224.275H1504.89V245.264H1519.97V224.275Z" stroke="white" stroke-miterlimit="10"/>
<path d="M1500.71 245.209H1523.63" stroke="white" stroke-miterlimit="10"/>
<path d="M1505.21 234.007H1519.97" stroke="white" stroke-miterlimit="10"/>
<path d="M1488.31 224.275H1473.23V245.264H1488.31V224.275Z" stroke="white" stroke-miterlimit="10"/>
<path d="M1469.05 245.209H1491.96" stroke="white" stroke-miterlimit="10"/>
<path d="M1473.55 234.007H1488.24" stroke="white" stroke-miterlimit="10"/>
<path d="M1459.84 218.254V234.235" stroke="white" stroke-miterlimit="10"/>
<path d="M1230.32 417.302H1220.85" stroke="white" stroke-miterlimit="10"/>
<path d="M1373.56 452.408H1364.1" stroke="white" stroke-miterlimit="10"/>
<path d="M1200.54 445.755H1198.2" stroke="white" stroke-miterlimit="10"/>
<path d="M1280.77 445.755H1265.26" stroke="white" stroke-miterlimit="10"/>
<path d="M1308.16 434.848H1305.75" stroke="white" stroke-miterlimit="10"/>
<path d="M1449.26 191.313V184.2H1576.5V191.313" stroke="white" stroke-miterlimit="10"/>
<path d="M1430.27 371.112H1421.91V383.651H1430.27V371.112Z" stroke="white" stroke-miterlimit="10"/>
<path d="M1413.1 371.112H1404.74V383.651H1413.1V371.112Z" stroke="white" stroke-miterlimit="10"/>
<path d="M1395.92 371.112H1387.57V383.651H1395.92V371.112Z" stroke="white" stroke-miterlimit="10"/>
<path d="M1430.27 351.635H1421.91V364.174H1430.27V351.635Z" stroke="white" stroke-miterlimit="10"/>
<path d="M1413.1 351.635H1404.74V364.174H1413.1V351.635Z" stroke="white" stroke-miterlimit="10"/>
<path d="M1395.92 351.635H1387.57V364.174H1395.92V351.635Z" stroke="white" stroke-miterlimit="10"/>
<path d="M1430.27 332.158H1421.91V344.697H1430.27V332.158Z" stroke="white" stroke-miterlimit="10"/>
<path d="M1413.1 332.158H1404.74V344.697H1413.1V332.158Z" stroke="white" stroke-miterlimit="10"/>
<path d="M1395.92 332.158H1387.57V344.697H1395.92V332.158Z" stroke="white" stroke-miterlimit="10"/>
<path d="M1430.27 312.737H1421.91V325.276H1430.27V312.737Z" stroke="white" stroke-miterlimit="10"/>
<path d="M1413.1 312.737H1404.74V325.276H1413.1V312.737Z" stroke="white" stroke-miterlimit="10"/>
<path d="M1395.92 312.737H1387.57V325.276H1395.92V312.737Z" stroke="white" stroke-miterlimit="10"/>
<path d="M1430.27 293.259H1421.91V305.798H1430.27V293.259Z" stroke="white" stroke-miterlimit="10"/>
<path d="M1413.1 293.259H1404.74V305.798H1413.1V293.259Z" stroke="white" stroke-miterlimit="10"/>
<path d="M1395.92 293.259H1387.57V305.798H1395.92V293.259Z" stroke="white" stroke-miterlimit="10"/>
<path d="M1627.5 397.771C1626.12 393.803 1621.94 390.942 1617.05 390.942C1612.02 390.942 1607.84 393.979 1606.54 398.001C1605.94 397.879 1605.3 397.771 1604.65 397.771C1600.27 397.771 1596.82 400.916 1596.82 404.763C1596.82 404.993 1596.82 405.235 1596.88 405.465H1607.59H1612.48H1619.6H1626.65H1635.14C1635.14 405.236 1635.21 404.993 1635.21 404.763C1635.14 400.916 1631.74 397.879 1627.5 397.771Z" stroke="white" stroke-miterlimit="10"/>
<path d="M1586.69 380.845C1599.74 380.845 1610.32 371.394 1610.32 359.735C1610.32 348.076 1599.74 338.625 1586.69 338.625C1573.64 338.625 1563.07 348.076 1563.07 359.735C1563.07 371.394 1573.64 380.845 1586.69 380.845Z" stroke="white" stroke-miterlimit="10"/>
<path d="M1599.23 361.029C1599.23 350.474 1590.09 341.836 1578.54 341.08C1570.18 343.995 1564.17 351.23 1564.17 359.801C1564.17 370.356 1573.31 378.994 1584.86 379.75C1593.29 376.767 1599.23 369.479 1599.23 361.029Z" stroke="white" stroke-miterlimit="10"/>
<path d="M1586.69 356.416V405.466" stroke="white" stroke-miterlimit="10"/>
<path d="M1586.69 370.64L1599.23 364.121" stroke="white" stroke-miterlimit="10"/>
<path d="M1586.69 361.085L1574.23 354.606" stroke="white" stroke-miterlimit="10"/>
<path d="M1247.17 382.493L1255.46 378.174" stroke="white" stroke-miterlimit="10"/>
<path d="M1247.17 376.188L1238.93 371.869" stroke="white" stroke-miterlimit="10"/>
<path d="M1257.67 365.054C1259.04 363.42 1259.89 361.436 1259.89 359.344C1259.89 353.81 1254.15 349.262 1247.1 349.262C1240.05 349.262 1234.31 353.756 1234.31 359.344C1234.31 361.45 1235.16 363.421 1236.53 365.054C1233.4 367.564 1231.44 371.236 1231.44 375.312C1231.44 382.951 1238.42 389.255 1247.05 389.255C1255.66 389.255 1262.65 383.019 1262.65 375.312C1262.76 371.235 1260.81 367.551 1257.67 365.054Z" stroke="white" stroke-miterlimit="10"/>
<path d="M1247.17 373.098V405.465" stroke="white" stroke-miterlimit="10"/>
<path d="M1507.05 184.2V151.428" stroke="white" stroke-miterlimit="10"/>
<path d="M1515.4 184.2V151.428" stroke="white" stroke-miterlimit="10"/>
<path d="M1494.97 159.473L1529.96 155.046" stroke="white" stroke-miterlimit="10"/>
<path d="M1494.97 165.776L1529.96 161.457" stroke="white" stroke-miterlimit="10"/>
<path d="M1411.72 153.116C1411.72 153.116 1413.61 166.235 1402.84 169.907C1402.84 169.907 1384.36 175.279 1381.23 156.666C1381.23 156.666 1382.47 160.162 1388.21 158.299C1388.21 158.299 1390.56 157.651 1391.68 158.245C1392.66 158.771 1391.08 156.436 1391.42 155.91C1391.42 155.91 1391.42 155.856 1391.35 155.856C1390.76 155.977 1388.21 156.207 1387.17 154.398C1387.17 154.398 1389.33 154.871 1390.64 153.237C1390.64 153.237 1390.64 153.183 1390.57 153.183C1390.05 153.237 1387.04 153.656 1386.14 152.198L1388.48 150.916C1388.55 150.916 1388.48 150.862 1388.48 150.862C1387.57 151.091 1384.24 151.564 1383.32 147.717C1383.32 147.717 1385.27 148.527 1387.5 148.068C1387.17 148.014 1383.25 147.312 1383.78 143.87C1383.78 143.87 1395.14 144.977 1398.27 155.41C1398.27 155.41 1399.51 162.402 1404.33 162.699C1404.33 162.699 1407.34 163.455 1408.9 153.372C1408.9 153.372 1408.51 149.35 1412.23 149.472C1412.23 149.472 1413.8 149.418 1414.12 150.632C1414.25 151.159 1414.12 151.739 1413.8 152.211C1413.55 152.832 1412.89 153.291 1411.72 153.116Z" stroke="white" stroke-miterlimit="10"/>
<path d="M1413.61 152.588L1429.08 154.113L1414.2 150.672" stroke="white" stroke-miterlimit="10"/>
<path d="M1392.59 170.15C1392.59 170.15 1386.78 176.386 1377.05 175.927" stroke="white" stroke-miterlimit="10"/>
<path d="M1388.67 168.691C1388.67 168.691 1383.78 173.942 1374.96 173.537" stroke="white" stroke-miterlimit="10"/>
<path d="M1433.65 170.379L1423.53 152.94L1418.89 171.607C1418.5 172.485 1418.37 173.47 1418.57 174.523C1419.16 178.019 1423.2 180.408 1427.57 179.827C1431.94 179.247 1435.01 175.927 1434.43 172.485C1434.24 171.661 1433.99 170.96 1433.65 170.379Z" stroke="white" stroke-miterlimit="10"/>
<path d="M1423.73 152.94C1423.73 152.94 1422.42 149.498 1426.28 149.322C1426.28 149.322 1427.26 151.549 1423.73 152.94Z" stroke="white" stroke-miterlimit="10"/>
<path d="M1423.34 152.94C1423.34 152.94 1424.32 149.445 1420.47 149.552C1420.4 149.566 1419.69 151.78 1423.34 152.94Z" stroke="white" stroke-miterlimit="10"/>
</g>
</g>
<defs>
<clipPath id="clip0_375_71551">
<rect width="1665" height="474.641" fill="white"/>
</clipPath>
</defs>
</svg>
